<svg width="28" height="31" viewBox="0 0 28 31" fill="none" xmlns="http://www.w3.org/2000/svg">
<path d="M6.40069 0.0995178C3.56777 0.0995178 0.169922 1.58552 0.169922 5.59152V24.0995C0.169922 24.0995 0.169922 26.0995 2.24685 26.0995V28.0995C2.24685 28.0995 2.24685 30.0995 4.32377 30.0995C6.40069 30.0995 6.40069 28.0995 6.40069 28.0995V26.0995H20.9392V28.0995C20.9392 28.0995 20.9392 30.0995 23.0161 30.0995C25.093 30.0995 25.093 28.0995 25.093 28.0995V26.0995C25.093 26.0995 27.1699 26.0995 27.1699 24.0995V5.59152C27.1699 1.50152 24.6028 0.0995178 21.7699 0.0995178H6.40069ZM6.91992 3.09952H20.4199C20.5576 3.09952 20.6897 3.1522 20.7871 3.24596C20.8844 3.33973 20.9392 3.46691 20.9392 3.59952C20.9392 3.73213 20.8844 3.8593 20.7871 3.95307C20.6897 4.04684 20.5576 4.09952 20.4199 4.09952H6.91992C6.78221 4.09952 6.65014 4.04684 6.55277 3.95307C6.4554 3.8593 6.40069 3.73213 6.40069 3.59952C6.40069 3.46691 6.4554 3.33973 6.55277 3.24596C6.65014 3.1522 6.78221 3.09952 6.91992 3.09952ZM4.32377 6.09952H23.0161C25.093 6.09952 25.093 8.03352 25.093 8.03352V14.0995C25.093 14.0995 25.093 16.0995 23.0161 16.0995H4.32377C2.24685 16.0995 2.24685 14.0995 2.24685 14.0995V8.09952C2.24685 8.09952 2.24685 6.09952 4.32377 6.09952ZM4.32377 20.0995C4.8746 20.0995 5.40288 20.3102 5.79237 20.6853C6.18187 21.0604 6.40069 21.5691 6.40069 22.0995C6.40069 22.63 6.18187 23.1387 5.79237 23.5137C5.40288 23.8888 4.8746 24.0995 4.32377 24.0995C3.77293 24.0995 3.24466 23.8888 2.85516 23.5137C2.46566 23.1387 2.24685 22.63 2.24685 22.0995C2.24685 21.5691 2.46566 21.0604 2.85516 20.6853C3.24466 20.3102 3.77293 20.0995 4.32377 20.0995ZM23.0161 20.0995C23.5669 20.0995 24.0952 20.3102 24.4847 20.6853C24.8742 21.0604 25.093 21.5691 25.093 22.0995C25.093 22.63 24.8742 23.1387 24.4847 23.5137C24.0952 23.8888 23.5669 24.0995 23.0161 24.0995C22.4652 24.0995 21.937 23.8888 21.5475 23.5137C21.158 23.1387 20.9392 22.63 20.9392 22.0995C20.9392 21.5691 21.158 21.0604 21.5475 20.6853C21.937 20.3102 22.4652 20.0995 23.0161 20.0995Z" fill="#251859"/>
</svg>
