<svg width="30" height="30" viewBox="0 0 30 30" fill="none" xmlns="http://www.w3.org/2000/svg">
<path d="M15.2221 0.0995483C7.19996 0.0995483 0.695374 6.60414 0.695374 14.6262C0.695374 22.6484 7.19996 29.1529 15.2221 29.1529C23.2442 29.1529 29.7488 22.6484 29.7488 14.6262C29.7488 6.60414 23.2442 0.0995483 15.2221 0.0995483ZM15.2221 26.6886C8.56184 26.6886 3.15972 21.2865 3.15972 14.6262C3.15972 7.96602 8.56184 2.5639 15.2221 2.5639C21.8823 2.5639 27.2844 7.96602 27.2844 14.6262C27.2844 21.2865 21.8823 26.6886 15.2221 26.6886Z" fill="#361B76"/>
<path d="M20.8869 18.7314L16.263 15.3883V7.36292C16.263 7.22025 16.1463 7.10352 16.0036 7.10352H14.4439C14.3012 7.10352 14.1845 7.22025 14.1845 7.36292V16.293C14.1845 16.3773 14.2234 16.4551 14.2915 16.5037L19.6547 20.4143C19.7715 20.4986 19.9336 20.4726 20.0179 20.3591L20.9453 19.0945C21.0296 18.9746 21.0036 18.8124 20.8869 18.7314Z" fill="#361B76"/>
</svg>
