<svg width="40" height="25" viewBox="0 0 40 25" fill="none" xmlns="http://www.w3.org/2000/svg">
<path d="M25.6995 16.4433L25.6995 16.4433L25.702 16.4393C25.983 15.9805 25.8176 15.5267 25.6584 15.2602C25.5758 15.1219 25.482 15.0093 25.4108 14.9326C25.3747 14.8936 25.3431 14.8625 25.3197 14.8403C25.3136 14.8346 25.308 14.8294 25.303 14.8248C25.2984 14.8206 25.2943 14.8169 25.2908 14.8137L25.2908 14.8137L25.2841 14.8069L25.2378 14.7602L25.0611 14.5822C24.9082 14.4283 24.6878 14.2071 24.4181 13.9378C23.8788 13.3993 23.1419 12.6682 22.3515 11.8981C20.7821 10.3687 18.9705 8.65364 18.0943 8.01274C17.6499 7.6863 17.26 7.48652 16.9078 7.41561C16.5372 7.34097 16.2165 7.41169 15.9533 7.60128C15.7084 7.77768 15.5442 8.03529 15.4216 8.2764C15.3282 8.45988 15.2438 8.66645 15.1665 8.85545C15.1428 8.9134 15.1198 8.96971 15.0974 9.02318L15.0968 9.02468C14.8922 9.51907 14.657 10.1153 14.4735 10.5865C14.41 10.7497 14.3525 10.8982 14.3045 11.0226L8.76701 8.41558L8.76679 8.41548L8.76628 8.41523L8.76498 8.41461L8.76483 8.41455L8.76124 8.41286L8.74938 8.40737C8.73958 8.40289 8.72602 8.3968 8.70913 8.38949C8.67542 8.3749 8.62805 8.35527 8.57054 8.33375C8.45698 8.29126 8.297 8.23883 8.1206 8.20483C7.94818 8.1716 7.73508 8.15094 7.52552 8.19186C7.30693 8.23454 7.07616 8.34904 6.92524 8.59209L6.92487 8.59268C6.64164 9.05066 6.80681 9.50535 6.96555 9.77191C7.04799 9.91033 7.14175 10.0231 7.21285 10.1C7.24893 10.1391 7.28051 10.1703 7.30389 10.1925C7.31562 10.2036 7.32537 10.2125 7.33271 10.2191L7.33309 10.2195L7.3401 10.2265L7.38635 10.2732L7.56309 10.4511C7.71611 10.6049 7.93653 10.826 8.20631 11.0951C8.74579 11.6332 9.483 12.3639 10.2735 13.1338C11.844 14.6632 13.6563 16.3783 14.5319 17.0207L14.5322 17.021C14.9766 17.3463 15.3664 17.5455 15.7182 17.6163C16.0884 17.6908 16.4089 17.6207 16.6722 17.4316C16.9173 17.2556 17.0816 16.9984 17.2044 16.7574C17.2983 16.5728 17.3832 16.3651 17.4609 16.1749C17.4841 16.1179 17.5067 16.0626 17.5287 16.0099L17.5292 16.0087C17.7339 15.514 17.9687 14.9165 18.1517 14.4441C18.2151 14.2806 18.2723 14.1318 18.3202 14.0071L23.8599 16.6182L23.8601 16.6183L23.8606 16.6185L23.861 16.6187L23.8619 16.6191L23.8656 16.6209L23.8775 16.6263C23.8873 16.6308 23.9008 16.6368 23.9177 16.644C23.9513 16.6585 23.9986 16.678 24.056 16.6993C24.1694 16.7414 24.3291 16.7934 24.5052 16.827C24.6774 16.86 24.89 16.8803 25.0991 16.8398C25.3168 16.7976 25.5476 16.6845 25.6995 16.4433ZM35.37 3.11772C34.1685 3.11772 32.9285 4.06984 32.0124 5.64706C31.0838 7.24583 30.4337 9.56495 30.4337 12.5C30.4337 15.4351 31.0838 17.7542 32.0124 19.3529C32.9285 20.9302 34.1685 21.8823 35.37 21.8823H37.31C36.7845 22.6869 36.2629 23.2996 35.4804 23.7451C34.5129 24.2959 33.0966 24.6177 30.684 24.6177H10.668C7.07595 24.6177 4.51863 22.9013 2.84593 20.5289C1.16442 18.1441 0.382282 15.0989 0.382282 12.5C0.382282 9.9011 1.16442 6.85593 2.84593 4.47107C4.51863 2.0987 7.07595 0.382282 10.668 0.382282H30.684C33.0956 0.382282 34.5119 0.704059 35.4796 1.25489C36.2624 1.70041 36.7844 2.31319 37.31 3.11772H35.37ZM36.25 8.56561H37.748C38.1197 8.56561 38.5787 8.83249 38.9654 9.48307C39.3459 10.1234 39.6177 11.0831 39.6177 12.3062C39.6177 13.5305 39.3459 14.4907 38.9653 15.1313C38.5787 15.7821 38.1197 16.049 37.748 16.049H36.25C35.8828 16.049 35.4345 15.7857 35.0571 15.1355C34.6855 14.4951 34.4223 13.5339 34.4223 12.3062C34.4223 11.0807 34.6851 10.12 35.0564 9.47954C35.4335 8.82934 35.8819 8.56561 36.25 8.56561Z" fill="#24CD3F" stroke="#251859" stroke-width="0.764563"/>
</svg>
