<svg width="41" height="26" viewBox="0 0 41 26" fill="none" xmlns="http://www.w3.org/2000/svg">
<path d="M25.8524 17.4334L25.8525 17.4334L25.8549 17.4293C26.1359 16.9706 25.9706 16.5167 25.8114 16.2503C25.7288 16.112 25.6349 15.9994 25.5637 15.9227C25.5276 15.8837 25.496 15.8526 25.4726 15.8304C25.4665 15.8247 25.4609 15.8195 25.456 15.8149C25.4514 15.8107 25.4473 15.807 25.4438 15.8038L25.4437 15.8038L25.437 15.797L25.3908 15.7503L25.2141 15.5723C25.0611 15.4183 24.8408 15.1972 24.5711 14.9279C24.0318 14.3894 23.2948 13.6583 22.5045 12.8882C20.9347 11.3585 19.1228 9.64311 18.2468 9.00248C17.8026 8.67624 17.4128 8.47658 17.0608 8.40569C16.6901 8.33105 16.3694 8.40177 16.1063 8.59136C15.8614 8.76776 15.6972 9.02537 15.5745 9.26648C15.4812 9.44997 15.3967 9.65653 15.3194 9.84553C15.2957 9.90349 15.2727 9.95979 15.2503 10.0133L15.2497 10.0148C15.0452 10.5091 14.81 11.1053 14.6265 11.5766C14.5629 11.7398 14.5055 11.8883 14.4575 12.0127L8.91996 9.40566L8.91975 9.40556L8.91924 9.40532L8.91793 9.4047L8.91779 9.40463L8.9142 9.40294L8.90234 9.39745C8.89254 9.39297 8.87897 9.38688 8.86208 9.37957C8.82837 9.36498 8.78101 9.34535 8.7235 9.32383C8.60993 9.28135 8.44995 9.22892 8.27355 9.19492C8.10113 9.16168 7.88803 9.14102 7.67847 9.18194C7.45989 9.22463 7.22911 9.33912 7.07819 9.58217L7.07782 9.58276C6.79459 10.0407 6.95976 10.4954 7.11851 10.762C7.20095 10.9004 7.2947 11.0132 7.36581 11.0901C7.40188 11.1291 7.43346 11.1604 7.45685 11.1826C7.46857 11.1937 7.47833 11.2026 7.48567 11.2092L7.48605 11.2096L7.49305 11.2166L7.5393 11.2633L7.71605 11.4412C7.86907 11.595 8.08948 11.816 8.35926 12.0851C8.89875 12.6233 9.63595 13.354 10.4265 14.1238C11.997 15.6533 13.8093 17.3684 14.6848 18.0108L14.6851 18.011C15.1295 18.3364 15.5193 18.5355 15.8712 18.6064C16.2414 18.6809 16.5619 18.6108 16.8252 18.4217C17.0702 18.2457 17.2346 17.9885 17.3573 17.7474C17.4513 17.5629 17.5361 17.3551 17.6138 17.165C17.6371 17.108 17.6597 17.0527 17.6817 17L17.6822 16.9987C17.8869 16.504 18.1216 15.9066 18.3047 15.4342C18.368 15.2707 18.4253 15.1219 18.4731 14.9972L24.0128 17.6083L24.013 17.6084L24.0135 17.6086L24.014 17.6088L24.0149 17.6092L24.0186 17.611L24.0304 17.6164C24.0402 17.6208 24.0537 17.6269 24.0706 17.6341C24.1043 17.6486 24.1515 17.6681 24.209 17.6894C24.3223 17.7315 24.4821 17.7835 24.6582 17.8171C24.8304 17.85 25.043 17.8704 25.252 17.8299C25.4698 17.7877 25.7005 17.6746 25.8524 17.4334ZM35.523 4.1078C34.3214 4.1078 33.0815 5.05992 32.1654 6.63714C31.2368 8.23591 30.5867 10.555 30.5867 13.4901C30.5867 16.4251 31.2368 18.7443 32.1654 20.343C33.0815 21.9202 34.3214 22.8724 35.523 22.8724H37.463C36.9375 23.677 36.4158 24.2897 35.6333 24.7352C34.6659 25.286 33.2496 25.6078 30.837 25.6078H10.821C7.2289 25.6078 4.67159 23.8914 2.99888 21.519C1.31737 19.1342 0.535236 16.089 0.535236 13.4901C0.535236 10.8912 1.31737 7.84601 2.99888 5.46115C4.67159 3.08879 7.2289 1.37236 10.821 1.37236H30.837C33.2486 1.37236 34.6649 1.69414 35.6326 2.24497C36.4153 2.6905 36.9374 3.30327 37.4629 4.1078H35.523ZM36.403 9.5557H37.901C38.2727 9.5557 38.7317 9.82257 39.1183 10.4732C39.4989 11.1135 39.7707 12.0731 39.7707 13.2963C39.7707 14.5206 39.4989 15.4808 39.1183 16.1214C38.7316 16.7722 38.2727 17.039 37.901 17.039H36.403C36.0358 17.039 35.5874 16.7758 35.2101 16.1256C34.8385 15.4852 34.5752 14.5239 34.5752 13.2963C34.5752 12.0708 34.838 11.11 35.2094 10.4696C35.5865 9.81943 36.0348 9.5557 36.403 9.5557Z" fill="#B4B4B4" stroke="#251859" stroke-width="0.764563"/>
</svg>
