<svg width="28" height="31" viewBox="0 0 28 31" fill="none" xmlns="http://www.w3.org/2000/svg">
<path d="M13.6699 0.322815C6.91992 0.322815 0.169922 1.11229 0.169922 6.6386V21.6386C0.169922 23.1386 0.811172 24.4965 1.85742 25.4912V28.7439C1.85742 29.6123 2.6168 30.3228 3.54492 30.3228H5.23242C6.16055 30.3228 6.91992 29.6123 6.91992 28.7439V27.1649H20.4199V28.7439C20.4199 29.6123 21.1793 30.3228 22.1074 30.3228H23.7949C24.723 30.3228 25.4824 29.6123 25.4824 28.7439V25.4912C26.5287 24.4965 27.1699 23.1386 27.1699 21.6386V6.6386C27.1699 1.11229 21.1287 0.322815 13.6699 0.322815ZM7.76367 22.4281C6.36305 22.4281 5.23242 21.3702 5.23242 20.0597C5.23242 18.7491 6.36305 17.6912 7.76367 17.6912C9.1643 17.6912 10.2949 18.7491 10.2949 20.0597C10.2949 21.3702 9.1643 22.4281 7.76367 22.4281ZM19.5762 22.4281C18.1755 22.4281 17.0449 21.3702 17.0449 20.0597C17.0449 18.7491 18.1755 17.6912 19.5762 17.6912C20.9768 17.6912 22.1074 18.7491 22.1074 20.0597C22.1074 21.3702 20.9768 22.4281 19.5762 22.4281ZM23.7949 12.9544H3.54492V8.21755H23.7949V12.9544Z" fill="#251859"/>
</svg>
