<svg width="41" height="26" viewBox="0 0 41 26" fill="none" xmlns="http://www.w3.org/2000/svg">
<path d="M25.8524 17.0015L25.8524 17.0015L25.8549 16.9975C26.1359 16.5387 25.9705 16.0849 25.8113 15.8184C25.7287 15.6801 25.6349 15.5676 25.5637 15.4908C25.5276 15.4519 25.496 15.4207 25.4725 15.3986C25.4664 15.3928 25.4609 15.3876 25.4559 15.383C25.4513 15.3788 25.4472 15.3751 25.4437 15.372L25.4437 15.3719L25.4369 15.3652L25.3907 15.3185L25.214 15.1404C25.0611 14.9865 24.8407 14.7653 24.571 14.496C24.0317 13.9576 23.2948 13.2265 22.5044 12.4563C20.9347 10.9266 19.1227 9.21126 18.2467 8.57063C17.8025 8.24438 17.4127 8.04472 17.0607 7.97383C16.6901 7.89919 16.3694 7.96992 16.1062 8.15951C15.8613 8.33591 15.6971 8.59352 15.5745 8.83463C15.4811 9.01811 15.3967 9.22468 15.3194 9.41368C15.2957 9.47163 15.2727 9.52793 15.2503 9.58141L15.2497 9.58291C15.0451 10.0773 14.8099 10.6735 14.6264 11.1448C14.5629 11.3079 14.5054 11.4564 14.4574 11.5808L8.9199 8.97381L8.91968 8.9737L8.91918 8.97346L8.91787 8.97284L8.91773 8.97278L8.91414 8.97108L8.90228 8.9656C8.89247 8.96111 8.87891 8.95502 8.86202 8.94771C8.82831 8.93312 8.78095 8.91349 8.72344 8.89198C8.60987 8.84949 8.44989 8.79706 8.27349 8.76306C8.10107 8.72983 7.88797 8.70917 7.67841 8.75009C7.45983 8.79277 7.22905 8.90726 7.07813 9.15031L7.07776 9.15091C6.79453 9.60889 6.9597 10.0636 7.11845 10.3301C7.20088 10.4686 7.29464 10.5813 7.36575 10.6583C7.40182 10.6973 7.4334 10.7285 7.45679 10.7507C7.46851 10.7618 7.47827 10.7708 7.4856 10.7774L7.48599 10.7777L7.49299 10.7848L7.53924 10.8314L7.71599 11.0094C7.869 11.1632 8.08942 11.3842 8.3592 11.6533C8.89869 12.1914 9.63589 12.9221 10.4264 13.692C11.9969 15.2214 13.8092 16.9366 14.6848 17.5789L14.6851 17.5792C15.1295 17.9045 15.5193 18.1037 15.8711 18.1745C16.2413 18.249 16.5618 18.1789 16.8251 17.9898C17.0702 17.8139 17.2345 17.5566 17.3573 17.3156C17.4512 17.1311 17.5361 16.9233 17.6138 16.7331C17.637 16.6762 17.6596 16.6208 17.6816 16.5681L17.6821 16.5669C17.8868 16.0722 18.1216 15.4747 18.3046 15.0023C18.368 14.8388 18.4252 14.69 18.4731 14.5653L24.0128 17.1764L24.013 17.1765L24.0135 17.1767L24.0139 17.1769L24.0148 17.1774L24.0185 17.1791L24.0304 17.1845C24.0401 17.189 24.0537 17.195 24.0705 17.2023C24.1042 17.2167 24.1515 17.2362 24.2089 17.2575C24.3223 17.2997 24.482 17.3516 24.6581 17.3853C24.8303 17.4182 25.0429 17.4386 25.252 17.398C25.4697 17.3559 25.7004 17.2428 25.8524 17.0015ZM35.5229 3.67595C34.3214 3.67595 33.0814 4.62806 32.1653 6.20529C31.2367 7.80405 30.5866 10.1232 30.5866 13.0582C30.5866 15.9933 31.2367 18.3124 32.1653 19.9112C33.0814 21.4884 34.3214 22.4405 35.5229 22.4405H37.4629C36.9374 23.2451 36.4158 23.8578 35.6333 24.3034C34.6658 24.8542 33.2495 25.1759 30.8369 25.1759H10.8209C7.22884 25.1759 4.67153 23.4595 2.99882 21.0872C1.31731 18.7023 0.535175 15.6571 0.535175 13.0582C0.535175 10.4593 1.31731 7.41416 2.99882 5.0293C4.67153 2.65693 7.22884 0.940509 10.8209 0.940509H30.8369C33.2485 0.940509 34.6648 1.26229 35.6325 1.81312C36.4153 2.25864 36.9373 2.87141 37.4629 3.67595H35.5229ZM36.4029 9.12384H37.9009C38.2726 9.12384 38.7316 9.39072 39.1183 10.0413C39.4988 10.6816 39.7706 11.6413 39.7706 12.8645C39.7706 14.0888 39.4988 15.049 39.1182 15.6895C38.7316 16.3403 38.2726 16.6072 37.9009 16.6072H36.4029C36.0357 16.6072 35.5873 16.3439 35.21 15.6937C34.8384 15.0533 34.5752 14.0921 34.5752 12.8645C34.5752 11.6389 34.8379 10.6782 35.2093 10.0378C35.5864 9.38757 36.0348 9.12384 36.4029 9.12384Z" fill="#DE0000" stroke="#251859" stroke-width="0.764563"/>
</svg>
