<svg width="28" height="31" viewBox="0 0 28 31" fill="none" xmlns="http://www.w3.org/2000/svg">
<path d="M15.5985 4.51697L17.0449 2.26697H23.3128V0.0169678H4.02706V2.26697H13.1878L11.7414 4.51697C5.70492 4.65197 0.169922 5.61197 0.169922 9.76697V22.517C0.169922 24.767 2.31064 26.612 5.08778 26.942L2.09849 29.267V30.017H5.95564L9.81278 27.017H17.5271L21.3842 30.017H25.2414V29.267L22.2521 26.942C25.0292 26.612 27.1699 24.767 27.1699 22.517V9.76697C27.1699 5.61197 21.6349 4.65197 15.5985 4.51697ZM13.6699 24.767C12.0692 24.767 10.7771 23.762 10.7771 22.517C10.7771 21.272 12.0692 20.267 13.6699 20.267C15.2706 20.267 16.5628 21.272 16.5628 22.517C16.5628 23.762 15.2706 24.767 13.6699 24.767ZM23.3128 18.017H4.02706V10.517H23.3128V18.017Z" fill="#251859"/>
</svg>
