<svg width="41" height="26" viewBox="0 0 41 26" fill="none" xmlns="http://www.w3.org/2000/svg">
<path d="M25.8524 17.2249L25.8524 17.2249L25.8549 17.2208C26.1359 16.7621 25.9705 16.3082 25.8113 16.0417C25.7287 15.9035 25.6349 15.7909 25.5637 15.7141C25.5276 15.6752 25.496 15.644 25.4725 15.6219C25.4664 15.6161 25.4609 15.6109 25.4559 15.6064C25.4513 15.6022 25.4472 15.5985 25.4437 15.5953L25.4437 15.5953L25.4369 15.5885L25.3907 15.5418L25.214 15.3637C25.0611 15.2098 24.8407 14.9886 24.571 14.7194C24.0317 14.1809 23.2948 13.4498 22.5044 12.6796C20.9347 11.1499 19.1227 9.43459 18.2467 8.79395C17.8025 8.46771 17.4127 8.26805 17.0607 8.19716C16.6901 8.12252 16.3694 8.19324 16.1062 8.38284C15.8613 8.55924 15.6971 8.81684 15.5745 9.05796C15.4811 9.24144 15.3967 9.44801 15.3194 9.637C15.2957 9.69496 15.2727 9.75126 15.2503 9.80474L15.2497 9.80623C15.0451 10.3006 14.8099 10.8968 14.6264 11.3681C14.5629 11.5313 14.5054 11.6797 14.4574 11.8042L8.9199 9.19714L8.91968 9.19703L8.91918 9.19679L8.91787 9.19617L8.91773 9.1961L8.91414 9.19441L8.90228 9.18892C8.89247 9.18444 8.87891 9.17835 8.86202 9.17104C8.82831 9.15645 8.78095 9.13682 8.72344 9.11531C8.60987 9.07282 8.44989 9.02039 8.27349 8.98639C8.10107 8.95316 7.88797 8.9325 7.67841 8.97342C7.45983 9.0161 7.22905 9.13059 7.07813 9.37364L7.07776 9.37423C6.79453 9.83222 6.9597 10.2869 7.11845 10.5535C7.20088 10.6919 7.29464 10.8047 7.36575 10.8816C7.40182 10.9206 7.4334 10.9518 7.45679 10.974C7.46851 10.9851 7.47827 10.9941 7.4856 11.0007L7.48599 11.001L7.49299 11.0081L7.53924 11.0548L7.71599 11.2327C7.869 11.3865 8.08942 11.6075 8.3592 11.8766C8.89869 12.4148 9.63589 13.1455 10.4264 13.9153C11.9969 15.4448 13.8092 17.1599 14.6848 17.8023L14.6851 17.8025C15.1295 18.1278 15.5193 18.327 15.8711 18.3978C16.2413 18.4723 16.5618 18.4022 16.8251 18.2132C17.0702 18.0372 17.2345 17.78 17.3573 17.5389C17.4512 17.3544 17.5361 17.1466 17.6138 16.9564C17.637 16.8995 17.6596 16.8441 17.6816 16.7914L17.6821 16.7902C17.8868 16.2955 18.1216 15.698 18.3046 15.2257C18.368 15.0622 18.4252 14.9134 18.4731 14.7886L24.0128 17.3997L24.013 17.3998L24.0135 17.4001L24.0139 17.4003L24.0148 17.4007L24.0185 17.4024L24.0304 17.4079C24.0401 17.4123 24.0537 17.4184 24.0705 17.4256C24.1042 17.4401 24.1515 17.4595 24.2089 17.4809C24.3223 17.523 24.482 17.5749 24.6581 17.6086C24.8303 17.6415 25.0429 17.6619 25.252 17.6214C25.4697 17.5792 25.7004 17.4661 25.8524 17.2249ZM35.5229 3.89927C34.3214 3.89927 33.0814 4.85139 32.1653 6.42861C31.2367 8.02738 30.5866 10.3465 30.5866 13.2816C30.5866 16.2166 31.2367 18.5357 32.1653 20.1345C33.0814 21.7117 34.3214 22.6638 35.5229 22.6638H37.4629C36.9374 23.4684 36.4158 24.0812 35.6333 24.5267C34.6658 25.0775 33.2495 25.3993 30.8369 25.3993H10.8209C7.22884 25.3993 4.67153 23.6828 2.99882 21.3105C1.31731 18.9256 0.535175 15.8805 0.535175 13.2816C0.535175 10.6827 1.31731 7.63748 2.99882 5.25262C4.67153 2.88026 7.22884 1.16384 10.8209 1.16384H30.8369C33.2485 1.16384 34.6648 1.48561 35.6325 2.03644C36.4153 2.48197 36.9373 3.09474 37.4629 3.89927H35.5229ZM36.4029 9.34717H37.9009C38.2726 9.34717 38.7316 9.61405 39.1183 10.2646C39.4988 10.9049 39.7706 11.8646 39.7706 13.0878C39.7706 14.3121 39.4988 15.2723 39.1182 15.9129C38.7316 16.5637 38.2726 16.8305 37.9009 16.8305H36.4029C36.0357 16.8305 35.5873 16.5672 35.21 15.917C34.8384 15.2766 34.5752 14.3154 34.5752 13.0878C34.5752 11.8622 34.8379 10.9015 35.2093 10.2611C35.5864 9.6109 36.0348 9.34717 36.4029 9.34717Z" fill="#EBEF1C" stroke="#361B76" stroke-width="0.764563"/>
</svg>
